<svg width="82" height="120" viewBox="0 0 82 120" fill="none" xmlns="http://www.w3.org/2000/svg">
<path d="M2 16H16.1973L24.0059 118.152C24.085 119.195 24.9541 120 26 120C27.0459 120 27.915 119.195 27.9941 118.152L35.8037 16H70C74.416 16.0049 77.9951 19.584 78 24V26C77.9951 30.416 74.416 33.9951 70 34H56C49.376 34.0068 44.0068 39.376 44 46V50C44.0068 56.624 49.376 61.9932 56 62C60.416 62.0049 63.9951 65.584 64 70V88C64 89.1045 64.8955 90 66 90C67.1045 90 68 89.1045 68 88V70C67.9932 63.376 62.624 58.0068 56 58C51.584 57.9951 48.0049 54.416 48 50V46C48.0049 41.584 51.584 38.0049 56 38H70C76.624 37.9932 81.9932 32.624 82 26V24C81.9932 17.376 76.624 12.0068 70 12H35.9639C35.873 8.68555 34.6348 5.50488 32.46 3.00195C30.8545 1.09863 28.4902 0 26 0C23.5098 0 21.1455 1.09863 19.54 3.00195C17.3662 5.50488 16.127 8.68555 16.0361 12H2C0.895508 12 0 12.8955 0 14C0 15.1045 0.895508 16 2 16ZM22.4766 5.71875C23.3242 4.63379 24.624 4 26 4C27.377 4 28.6758 4.63379 29.5234 5.71875C31.0166 7.47852 31.8682 9.69336 31.9385 12H28V10C28 8.89551 27.1045 8 26 8C24.8955 8 24 8.89551 24 10V22C24 23.1045 24.8955 24 26 24C27.1045 24 28 23.1045 28 22V16H31.791L26 91.7598L20.0391 13.7783C19.7236 10.8721 20.6035 7.96289 22.4766 5.71875Z" fill="black"/>
</svg>
