<svg width="120" height="120" viewBox="0 0 120 120" fill="none" xmlns="http://www.w3.org/2000/svg">
<path d="M117.681 50.746C114.978 49.65 111.946 49.7668 109.361 51.0671C108.004 51.7494 106.833 52.7226 105.918 53.8996C102.72 53.5386 99.5424 55.187 98.0033 58.1015C94.355 57.9711 91.0124 60.3751 90.0322 64.0602L86.5578 77.1218C86.3089 78.0573 85.7134 78.839 84.8809 79.3235C84.6273 79.4713 79.6571 82.3619 79.3234 82.5559C79.2885 82.576 79.2585 82.5937 79.1987 82.5477C79.1392 82.5016 79.1481 82.4676 79.1586 82.4284L80.6832 76.6966C82.1291 71.2608 78.9177 65.6454 73.5245 64.1787C71.2051 63.5486 68.8185 64.9286 68.1978 67.261L63.0629 86.5661C61.8885 90.9808 61.2932 95.537 61.2932 100.108V117.972C61.2932 119.09 62.1962 120 63.306 120H82.8027C83.9125 120 84.8155 119.09 84.8155 117.972V110.545C84.8155 107.183 86.1742 103.896 88.5435 101.527L111.994 78.0799C113.59 76.4843 114.741 74.4846 115.323 72.2973L119.87 55.1984C120.358 53.3643 119.417 51.4498 117.681 50.746ZM93.4281 64.977C93.8792 63.2806 95.2248 62.0701 96.8239 61.7341L93.8607 72.8743C93.6118 73.81 93.0163 74.5918 92.184 75.076C92.1252 75.1105 90.5722 76.0136 90.4778 76.0686L93.4281 64.977ZM116.474 54.2818L111.926 71.3808C111.505 72.9643 110.672 74.4116 109.517 75.5666L86.0664 99.0132C83.0368 102.042 81.2994 106.246 81.2994 110.546V116.459H64.8085V100.108C64.8085 95.8466 65.3638 91.5989 66.4588 87.4829L71.5935 68.1778C71.7099 67.7403 72.1667 67.478 72.6081 67.5982C76.1333 68.5568 78.2324 72.227 77.2871 75.7798L75.7625 81.5117C75.3814 82.9446 75.89 84.454 77.0584 85.357C78.2267 86.2601 79.8057 86.3647 81.0812 85.6229L101.245 73.8955C102.891 72.9381 104.068 71.3926 104.56 69.5434L105.3 66.7607C105.551 65.8161 104.995 64.8452 104.057 64.5919C103.12 64.3386 102.156 64.8993 101.904 65.8439L101.164 68.6266C100.915 69.5623 100.32 70.344 99.4874 70.8283L97.7811 71.8206C100.927 59.9938 100.737 60.7033 100.768 60.6013C101.378 58.8131 102.636 57.8052 104.128 57.4878C104.123 57.5048 104.118 57.5216 104.114 57.5386C103.862 58.4832 104.419 59.4543 105.357 59.7074C106.294 59.9619 107.258 59.4003 107.51 58.4554C107.997 56.6218 109.245 55.0838 110.932 54.2351C112.642 53.3745 114.572 53.3025 116.369 54.0306C116.454 54.066 116.502 54.1786 116.474 54.2818Z" fill="black"/>
<path d="M51.8007 67.2612C51.1815 64.933 48.7981 63.5483 46.4741 64.1789C41.0809 65.6456 37.8697 71.2608 39.3153 76.6968L40.8399 82.4284C40.8505 82.4678 40.8594 82.5018 40.7999 82.5479C40.7403 82.5934 40.7101 82.5762 40.6754 82.5561C40.4218 82.4086 35.2921 79.4252 35.1177 79.3237C34.2849 78.8392 33.6894 78.0574 33.4407 77.122L29.9664 64.0604C28.9862 60.3753 25.6438 57.9725 21.9955 58.1021C20.5121 55.293 17.3973 53.5248 14.0802 53.8995C11.2808 50.2992 6.49088 49.0531 2.3176 50.7459C0.581585 51.4497 -0.359665 53.364 0.128304 55.1986L4.67635 72.2975C5.2583 74.485 6.40932 76.4845 8.00518 78.0801L23.5257 93.5984C24.2143 94.2871 25.3276 94.2831 26.0115 93.5889C26.6954 92.895 26.6912 91.7738 26.0021 91.0848L10.4816 75.5666C9.32658 74.4116 8.49338 72.9643 8.07221 71.3807L3.52416 54.282C3.49651 54.1786 3.54432 54.066 3.63057 54.031C7.44713 52.4829 11.495 54.7162 12.4892 58.4558L15.4386 69.5439C15.9306 71.3928 17.1078 72.9385 18.7536 73.8959L38.9176 85.6233C40.1926 86.3649 41.7718 86.2608 42.9402 85.3575C44.1083 84.4546 44.6171 82.945 44.236 81.5121L42.7114 75.7802C41.7664 72.2274 43.8653 68.5569 47.3905 67.5986C47.8316 67.4789 48.2886 67.7405 48.4051 68.1782L53.54 87.4833C54.635 91.5998 55.1903 95.8475 55.1903 100.109V116.459H38.6992V110.545C38.6992 106.246 36.9617 102.042 33.9322 99.0131L31.8824 96.9638C31.1933 96.2746 30.0803 96.2788 29.3966 96.9732C28.7127 97.6673 28.7169 98.7883 29.406 99.4773L31.4558 101.527C33.8249 103.895 35.1838 107.183 35.1838 110.545V117.972C35.1838 119.09 36.0868 120 37.1966 120H56.6933C57.8031 120 58.7061 119.09 58.7061 117.972V100.108C58.7061 95.5375 58.1106 90.9812 56.9364 86.5661L51.8007 67.2612ZM26.5703 64.9769L29.5206 76.0685C29.4685 76.0383 27.7897 75.0618 27.8143 75.076C26.9818 74.5917 26.3863 73.81 26.1376 72.8743L23.1742 61.7329C24.7731 62.0686 26.1191 63.2803 26.5703 64.9769ZM18.8345 68.6271C18.7864 68.4467 15.9015 57.5997 15.8713 57.4883C17.3436 57.8016 18.616 58.8005 19.2313 60.6015C19.262 60.7052 19.0719 59.9943 22.2177 71.8211L20.5117 70.8287C19.6789 70.3445 19.0834 69.5625 18.8345 68.6271Z" fill="black"/>
<g clip-path="url(#clip0)">
<path d="M49.6719 36.7177L43.4219 34.0615C42.6344 33.724 41.7125 34.0959 41.375 34.8896C41.0375 35.6834 41.4063 36.6021 42.2031 36.9365L48.4532 39.5928C48.65 39.6771 48.8594 39.7178 49.0625 39.7178C49.6688 39.7178 50.2469 39.3615 50.5 38.7646C50.8375 37.9709 50.4688 37.0521 49.6719 36.7177Z" fill="black"/>
<path d="M84.9781 10.8647C84.9688 10.7053 84.9594 10.5459 84.9 10.3866C84.8656 10.2959 84.8031 10.2334 84.7531 10.1522C84.7188 10.0959 84.6938 10.0459 84.6562 9.99593C84.4813 9.7678 84.2656 9.5928 84.0063 9.4928C83.9969 9.48968 83.9938 9.4803 83.9844 9.47718L58.9844 0.105304C58.6063 -0.0415713 58.1906 -0.0321963 57.8219 0.127179L35.9469 9.49905C35.925 9.50843 35.9156 9.53343 35.8938 9.5428C35.6781 9.64593 35.4969 9.8053 35.3469 10.0022C35.3031 10.0584 35.2656 10.1084 35.2281 10.1709C35.1969 10.2241 35.15 10.2616 35.125 10.3209C35.0406 10.5209 35 10.7272 35 10.9334V10.9366V39.0616C35 39.6866 35.3719 40.2522 35.9469 40.4991L57.8219 49.8741H57.825C58.0156 49.9553 58.2219 49.9991 58.4375 49.9991C58.625 49.9991 58.8094 49.9647 58.9875 49.8991L59.0437 49.8772C59.0437 49.8772 59.0438 49.8772 59.0469 49.8772L83.9875 40.5241C84.5969 40.2959 85 39.7116 85 39.0616V10.9366C85 10.9084 84.9781 10.8897 84.9781 10.8647ZM56.875 46.0647L38.125 38.0303V13.3083L56.875 21.3427V46.0647ZM58.475 18.6272L40.5312 10.9366L58.475 3.24905L78.9875 10.9366L74.0969 12.7709L65.3281 8.8428C64.8844 8.6428 64.3781 8.66468 63.9562 8.89593L57.8281 11.4991C57.25 11.7428 56.875 12.3178 56.875 12.9459C56.875 13.5772 57.2563 14.1491 57.8438 14.3897L63.5281 16.7366L58.475 18.6272ZM69.375 17.8772L72.5 16.7053V24.3209L69.375 25.4928V17.8772ZM67.8187 15.1241L62.475 12.9209L64.6875 11.9803L69.9375 14.3303L67.8187 15.1241ZM81.875 37.9772L60 46.1803V21.3928L66.25 19.0491V27.7491C66.25 28.2616 66.5031 28.7397 66.9219 29.0334C67.1875 29.2178 67.4969 29.3116 67.8125 29.3116C67.9969 29.3116 68.1844 29.2772 68.3625 29.2116L74.6125 26.8678C75.2219 26.6366 75.625 26.0553 75.625 25.4053V15.5334L81.875 13.1897V37.9772Z" fill="black"/>
</g>
<defs>
<clipPath id="clip0">
<rect width="50" height="50" fill="white" transform="translate(35)"/>
</clipPath>
</defs>
</svg>
