<svg width="118" height="120" viewBox="0 0 118 120" fill="none" xmlns="http://www.w3.org/2000/svg">
<path d="M58.0953 108.676C57.7646 108.676 57.4341 108.583 57.1449 108.397C56.7767 108.161 56.3881 107.915 55.9808 107.663C55.1553 107.152 54.9003 106.069 55.4112 105.243C55.9222 104.418 57.0061 104.163 57.8309 104.674C57.9286 104.734 58.0252 104.794 58.1208 104.854C58.2174 104.797 58.3151 104.74 58.4138 104.682C59.2515 104.191 60.3279 104.472 60.8192 105.31C61.31 106.148 61.0287 107.224 60.1908 107.715C59.7765 107.958 59.3815 108.194 59.0075 108.421C58.7272 108.591 58.411 108.676 58.0953 108.676V108.676Z" fill="black"/>
<path d="M50.0977 104.134C49.8343 104.134 49.5668 104.075 49.3151 103.95C48.5562 103.571 47.7847 103.202 47.0218 102.852C46.1393 102.447 45.7524 101.404 46.1574 100.522C46.5624 99.6394 47.6061 99.252 48.488 99.6572C49.2847 100.023 50.0907 100.408 50.8831 100.803C51.7519 101.236 52.1056 102.291 51.6725 103.16C51.365 103.777 50.7432 104.134 50.0977 104.134ZM40.5155 100.129C40.3292 100.129 40.1398 100.1 39.9537 100.037C39.1512 99.7664 38.3396 99.5098 37.5411 99.2749C36.6097 99.0007 36.0772 98.0234 36.3514 97.0922C36.6256 96.1608 37.6018 95.6278 38.5341 95.9023C39.3762 96.1502 40.2317 96.4205 41.0773 96.7055C41.9972 97.0158 42.4915 98.0128 42.1812 98.9327C41.9337 99.6666 41.2491 100.129 40.5155 100.129V100.129ZM30.4428 97.6291C30.353 97.6291 30.2621 97.6223 30.1707 97.608C29.3382 97.4787 28.5012 97.3694 27.6826 97.2834C26.7172 97.1819 26.0166 96.3171 26.1179 95.3517C26.2194 94.3863 27.0828 93.6869 28.0496 93.787C28.9259 93.8791 29.8215 93.9959 30.7107 94.1341C31.6702 94.2834 32.3269 95.182 32.1776 96.1413C32.0426 97.009 31.2945 97.6291 30.4428 97.6291V97.6291Z" fill="black"/>
<path d="M18.6751 97.223C17.9466 97.223 17.2854 96.7706 17.0281 96.0767C16.7506 95.329 17.0112 94.4883 17.663 94.0287C18.0291 93.7704 18.395 93.5032 18.7512 93.2339C19.5258 92.6482 20.6281 92.8017 21.2136 93.5759C21.402 93.825 21.5138 94.1084 21.5532 94.3974C21.7123 94.6423 21.8124 94.9306 21.8321 95.2427C21.8933 96.2116 21.1573 97.0465 20.1882 97.1079C19.7384 97.1363 19.2863 97.1721 18.845 97.215C18.7883 97.2204 18.7315 97.223 18.6751 97.223V97.223Z" fill="black"/>
<path d="M26.1502 90.4584C25.7436 90.4584 25.3351 90.3183 25.0029 90.0318C24.2675 89.3979 24.1857 88.2879 24.8197 87.5526C25.4213 86.8549 26.0042 86.1269 26.5522 85.3896C27.1311 84.6103 28.2322 84.4476 29.0112 85.0265C29.7905 85.6054 29.9534 86.7063 29.3743 87.4858C28.7759 88.2916 28.1391 89.0864 27.4822 89.8486C27.1344 90.2515 26.6436 90.4584 26.1502 90.4584V90.4584ZM32.3485 80.7035C32.1083 80.7035 31.8645 80.654 31.6308 80.5495C30.7449 80.1527 30.3481 79.1128 30.7451 78.2266C31.1197 77.3906 31.4705 76.5255 31.7881 75.6558C32.1211 74.7438 33.1301 74.2743 34.0423 74.6076C34.9543 74.9407 35.4235 75.9501 35.0904 76.8618C34.7443 77.8092 34.362 78.7518 33.9535 79.6636C33.6615 80.3165 33.02 80.7035 32.3485 80.7035V80.7035ZM35.5817 69.6004C35.4931 69.6004 35.4036 69.5939 35.3133 69.58C34.3536 69.4333 33.695 68.5361 33.8417 67.5766C33.9807 66.6691 34.0946 65.7361 34.1804 64.8037C34.2694 63.8369 35.127 63.1254 36.0919 63.2144C37.0587 63.3035 37.7703 64.1592 37.6812 65.126C37.5886 66.1282 37.4663 67.1318 37.3168 68.1086C37.1839 68.9779 36.4351 69.6004 35.5817 69.6004ZM35.9466 58.0364C35.0454 58.0364 34.2783 57.3473 34.1977 56.4328C34.1154 55.5011 34.0055 54.5676 33.8703 53.6578C33.7278 52.6975 34.3906 51.8034 35.3506 51.6607C36.3104 51.5175 37.205 52.1805 37.3477 53.141C37.493 54.1195 37.6114 55.1233 37.6995 56.1241C37.7848 57.0911 37.0697 57.9443 36.1027 58.0293C36.0504 58.034 35.9982 58.0364 35.9466 58.0364V58.0364ZM33.5068 46.732C32.7865 46.732 32.1108 46.2857 31.8528 45.569C31.539 44.6976 31.1923 43.8309 30.822 42.993C30.4297 42.105 30.8314 41.0672 31.7194 40.6746C32.6068 40.2822 33.6451 40.6837 34.0379 41.5718C34.4415 42.4851 34.8193 43.4294 35.1608 44.3786C35.4896 45.292 35.0157 46.2991 34.1021 46.6279C33.9057 46.6985 33.7046 46.732 33.5068 46.732V46.732ZM28.0829 36.5261C27.5426 36.5261 27.0097 36.2779 26.6651 35.8092C26.1221 35.0702 25.5427 34.3394 24.9434 33.6372C24.3134 32.8987 24.4011 31.7892 25.1396 31.1592C25.8779 30.5287 26.9876 30.6168 27.6176 31.3554C28.2718 32.122 28.9044 32.9198 29.4976 33.7272C30.0725 34.5093 29.9044 35.6097 29.1223 36.1847C28.8092 36.415 28.4443 36.5261 28.0829 36.5261Z" fill="black"/>
<path d="M19.9524 28.2761C19.5804 28.2761 19.2057 28.1587 18.8874 27.9154C18.5321 27.6445 18.1674 27.3757 17.8029 27.1162C17.1601 26.6587 16.9008 25.8288 17.169 25.0868C17.4371 24.3447 18.1627 23.8715 18.9535 23.9311C19.3953 23.9641 19.8429 23.9882 20.284 24.0028C21.2543 24.0349 22.0151 24.8475 21.983 25.8175C21.972 26.1497 21.8696 26.4574 21.7006 26.7171C21.6661 27.0222 21.5508 27.3225 21.3511 27.5843C21.0054 28.0378 20.4819 28.2761 19.9524 28.2761V28.2761Z" fill="black"/>
<path d="M29.2482 26.6104C28.4515 26.6104 27.7299 26.0653 27.5389 25.2562C27.316 24.3114 27.901 23.3646 28.846 23.1417C29.7701 22.9235 30.7039 22.6607 31.6203 22.3607C32.5433 22.0596 33.5358 22.5623 33.8375 23.4848C34.1394 24.4075 33.6361 25.4001 32.7134 25.702C31.7033 26.0325 30.6739 26.3221 29.6534 26.5629C29.5177 26.595 29.382 26.6104 29.2482 26.6104V26.6104ZM40.404 21.9775C39.8089 21.9775 39.2283 21.6752 38.8979 21.1289C38.3956 20.298 38.6621 19.2173 39.4929 18.7153C40.3114 18.2205 41.1331 17.6854 41.9354 17.1246C42.7315 16.5684 43.827 16.7629 44.3832 17.5584C44.9394 18.3541 44.7451 19.45 43.9494 20.0062C43.0838 20.6114 42.1962 21.1891 41.3115 21.7239C41.0274 21.8957 40.7138 21.9775 40.404 21.9775V21.9775Z" fill="black"/>
<path d="M49.8849 14.4625C49.4363 14.4625 48.9879 14.2919 48.6448 13.9504C47.9567 13.2656 47.9544 12.1528 48.6392 11.4647C48.9565 11.1461 49.2746 10.8175 49.5854 10.4885C49.9175 10.1369 50.3799 9.93747 50.8634 9.93747H52.2697C53.2407 9.93747 54.0275 10.7245 54.0275 11.6953C54.0275 12.6661 53.2407 13.4531 52.2697 13.4531H51.6139C51.4531 13.6186 51.2919 13.7829 51.1306 13.9448C50.7875 14.2898 50.3361 14.4625 49.8849 14.4625Z" fill="black"/>
<path d="M59.9614 13.4531H58.0386C57.0676 13.4531 56.2808 12.6661 56.2808 11.6953C56.2808 10.7245 57.0676 9.93747 58.0386 9.93747H59.9614C60.9324 9.93747 61.7192 10.7245 61.7192 11.6953C61.7192 12.6661 60.9322 13.4531 59.9614 13.4531Z" fill="black"/>
<path d="M68.1146 14.4625C67.6632 14.4625 67.2122 14.29 66.8689 13.9448C66.7076 13.7829 66.5464 13.6186 66.3856 13.4531H65.7298C64.7588 13.4531 63.972 12.6661 63.972 11.6953C63.972 10.7245 64.7588 9.93747 65.7298 9.93747H67.1361C67.6196 9.93747 68.082 10.1369 68.4141 10.4885C68.7249 10.8175 69.0432 11.1459 69.3603 11.4647C70.0451 12.1528 70.0426 13.2658 69.3547 13.9504C69.0118 14.2919 68.563 14.4625 68.1146 14.4625V14.4625Z" fill="black"/>
<path d="M88.7483 26.61C88.6144 26.61 88.4787 26.5947 88.3428 26.5626C87.3228 26.3219 86.2934 26.032 85.283 25.7013C84.3603 25.3992 83.8573 24.4066 84.1592 23.4839C84.4611 22.5614 85.4522 22.0582 86.3766 22.36C87.2933 22.66 88.2268 22.9228 89.1507 23.141C90.0954 23.3641 90.6804 24.311 90.4573 25.2557C90.2663 26.0648 89.5447 26.61 88.7483 26.61ZM77.5932 21.9766C77.2836 21.9766 76.97 21.8948 76.6854 21.7228C75.8014 21.1884 74.9138 20.6104 74.0476 20.0048C73.2516 19.4486 73.0576 18.3527 73.614 17.557C74.1699 16.7615 75.2658 16.5672 76.0615 17.1234C76.8645 17.6847 77.6862 18.2198 78.504 18.7141C79.3348 19.2164 79.6013 20.2968 79.099 21.1277C78.769 21.6743 78.1883 21.9766 77.5932 21.9766V21.9766Z" fill="black"/>
<path d="M98.0473 28.2759C97.5179 28.2759 96.9945 28.0378 96.6486 27.5845C96.4487 27.3227 96.3338 27.0229 96.2994 26.718C96.1301 26.4583 96.0275 26.1504 96.0165 25.8178C95.9844 24.8475 96.7451 24.0351 97.7154 24.003C98.1575 23.9885 98.6051 23.9643 99.0462 23.9311C99.8349 23.8715 100.563 24.3447 100.831 25.0868C101.099 25.829 100.84 26.659 100.197 27.1165C99.8316 27.3759 99.4669 27.6447 99.1123 27.9152C98.7938 28.1585 98.419 28.2759 98.0473 28.2759V28.2759Z" fill="black"/>
<path d="M91.8579 90.468C91.3646 90.468 90.8738 90.2613 90.526 89.8582C89.8679 89.0953 89.2311 88.3003 88.6327 87.4954C88.0533 86.7164 88.2155 85.6153 88.9946 85.0359C89.7732 84.4565 90.8747 84.6187 91.4539 85.3976C92.0018 86.1347 92.5854 86.8629 93.1882 87.5618C93.8222 88.297 93.7402 89.407 93.0052 90.041C92.6733 90.3276 92.2648 90.468 91.8579 90.468ZM85.6545 80.7105C84.983 80.7105 84.3415 80.3236 84.0493 79.6708C83.6401 78.7572 83.2573 77.8144 82.9116 76.8682C82.5786 75.9562 83.0475 74.947 83.9595 74.614C84.8722 74.2804 85.8809 74.7499 86.214 75.6619C86.5313 76.5302 86.8824 77.3955 87.2579 78.2339C87.6547 79.1198 87.2583 80.1597 86.3724 80.5568C86.1387 80.6611 85.8947 80.7105 85.6545 80.7105V80.7105ZM82.4183 69.6033C81.5649 69.6033 80.8163 68.981 80.6832 68.1115C80.5334 67.1353 80.4108 66.1315 80.3183 65.1274C80.2294 64.1606 80.9408 63.3049 81.9076 63.2158C82.8713 63.127 83.73 63.8381 83.8191 64.8051C83.9049 65.7391 84.019 66.6724 84.1578 67.5787C84.305 68.5385 83.6461 69.4354 82.6866 69.5826C82.5966 69.5965 82.5068 69.6033 82.4183 69.6033ZM82.0529 58.0336C82.0008 58.0336 81.9488 58.0312 81.8963 58.0265C80.9293 57.9412 80.2144 57.0881 80.2997 56.1211C80.3883 55.1172 80.5069 54.1132 80.6522 53.1368C80.795 52.1765 81.6898 51.5144 82.6493 51.6567C83.6096 51.7994 84.2722 52.6938 84.1292 53.654C83.9944 54.5615 83.884 55.4955 83.8015 56.4304C83.7214 57.3447 82.9538 58.0336 82.0529 58.0336ZM84.4955 46.7238C84.2977 46.7238 84.0968 46.6903 83.9002 46.6195C82.9868 46.2907 82.5127 45.2838 82.8415 44.3702C83.183 43.4217 83.5611 42.4767 83.9658 41.5619C84.3586 40.6739 85.3967 40.2726 86.2845 40.6654C87.1725 41.058 87.5738 42.0961 87.1812 42.9841C86.81 43.8234 86.4629 44.6904 86.1495 45.5611C85.8915 46.2776 85.2158 46.7238 84.4955 46.7238V46.7238ZM89.9255 36.5147C89.5636 36.5147 89.1987 36.4033 88.8854 36.1727C88.1032 35.5973 87.9357 34.4972 88.5111 33.7151C89.1064 32.9058 89.7397 32.1077 90.3929 31.3427C91.0236 30.6047 92.1329 30.5172 92.8711 31.1477C93.6092 31.7782 93.6964 32.8877 93.0661 33.626C92.4675 34.3265 91.8879 35.0573 91.3425 35.7984C90.9982 36.2667 90.4655 36.5147 89.9255 36.5147V36.5147Z" fill="black"/>
<path d="M99.3551 97.2445C99.297 97.2445 99.2384 97.2414 99.1796 97.2356C98.7387 97.1915 98.2862 97.1538 97.8347 97.1233C96.8661 97.0579 96.1339 96.2198 96.199 95.2511C96.2199 94.9422 96.3197 94.657 96.477 94.4144C96.5169 94.1275 96.6284 93.8468 96.815 93.5993C97.4 92.8244 98.5015 92.6704 99.2771 93.2552C99.6336 93.5243 99.9999 93.7914 100.366 94.049C101.019 94.5089 101.28 95.3512 101.002 96.0998C100.743 96.7929 100.082 97.2443 99.3551 97.2445Z" fill="black"/>
<path d="M66.4969 104.152C65.8388 104.152 65.2076 103.781 64.9072 103.147C64.4919 102.269 64.8659 101.221 65.7432 100.806C66.5813 100.409 67.4286 100.023 68.2618 99.6581C69.1501 99.2686 70.1874 99.6745 70.5767 100.564C70.9658 101.453 70.5603 102.49 69.6708 102.879C68.87 103.23 68.0546 103.601 67.2483 103.983C67.0053 104.098 66.7491 104.152 66.4969 104.152V104.152ZM76.5739 100.131C75.8318 100.131 75.1421 99.6569 74.9016 98.9128C74.6033 97.9891 75.1102 96.9982 76.0339 96.6998C76.9205 96.4132 77.8158 96.1422 78.6943 95.894C79.6294 95.6301 80.6 96.1734 80.8639 97.1076C81.1278 98.0419 80.5845 99.0131 79.65 99.277C78.8133 99.5135 77.9602 99.7718 77.1148 100.045C76.9351 100.103 76.7532 100.131 76.5739 100.131V100.131ZM87.1229 97.6174C86.2667 97.6174 85.5165 96.9909 85.3866 96.1183C85.2436 95.1581 85.906 94.2637 86.8662 94.1208C87.7948 93.9825 88.7297 93.866 89.6452 93.7746C90.6108 93.6771 91.4726 94.383 91.569 95.3491C91.6653 96.3152 90.9603 97.1763 89.9944 97.2729C89.135 97.3587 88.2568 97.4681 87.3837 97.5979C87.2963 97.6111 87.2091 97.6174 87.1229 97.6174V97.6174Z" fill="black"/>
<path fill-rule="evenodd" clip-rule="evenodd" d="M8.1249 109.716C8.66115 109.93 9.22997 110.036 9.79833 110.036C10.4672 110.036 11.135 109.889 11.7488 109.595C17.1619 107.012 23.559 106.441 30.7604 107.899C31.7122 108.092 32.6396 107.476 32.832 106.525C33.0249 105.573 32.4097 104.646 31.4581 104.453C23.4915 102.841 16.351 103.503 10.2345 106.423C9.88763 106.588 9.57919 106.511 9.42685 106.45C9.27497 106.389 8.99958 106.235 8.86294 105.879L4.1963 93.731C4.0606 93.3778 4.1588 93.0802 4.22958 92.9341C4.30083 92.7874 4.47427 92.5242 4.83826 92.4108C7.93599 91.4447 13.8964 89.0149 19.0156 83.5941C24.6629 77.6137 27.5675 69.8667 27.6488 60.5463L27.6486 60.4973L27.6488 60.446C27.5675 51.1472 24.6629 43.4002 19.0156 37.4198C13.8966 31.9992 7.93599 29.5692 4.83826 28.6031C4.47427 28.4897 4.30083 28.2267 4.22958 28.08C4.1588 27.9342 4.0606 27.6366 4.1963 27.2831L8.85568 15.1542C8.99279 14.7975 9.26935 14.6435 9.42193 14.5837C9.57802 14.5223 9.89255 14.4457 10.2467 14.6189C18.1936 18.513 26.2733 18.3741 34.2605 14.2057C40.5875 10.9041 45.0472 5.8868 46.6711 3.88289C46.8603 3.64945 47.1432 3.51562 47.4476 3.51562H55.7808C56.7518 3.51562 57.5386 2.72859 57.5386 1.75781C57.5386 0.787031 56.7518 0 55.7808 0H47.4476C46.0777 0 44.7992 0.608672 43.9397 1.66945C30.192 18.6347 15.8588 13.4538 11.7936 11.4619C10.6512 10.9022 9.31904 10.8476 8.13685 11.3114C6.96099 11.7731 6.02701 12.7144 5.57396 13.8935L0.914584 26.0224C0.468334 27.1842 0.523178 28.4925 1.06529 29.6121C1.6081 30.7331 2.60185 31.5886 3.79177 31.9596C8.51794 33.4336 23.9529 39.8461 24.1332 60.4615L24.1334 60.4809C24.1332 60.4987 24.1329 60.5203 24.1332 60.5379C23.9529 81.1688 8.51794 87.581 3.79154 89.055C2.60162 89.4262 1.60787 90.282 1.06529 91.4027C0.523178 92.5221 0.468334 93.8304 0.914584 94.9922L5.58099 107.14C6.03122 108.312 6.95841 109.251 8.1249 109.716ZM54.7119 118.908C55.6465 119.612 56.8109 120 57.9905 120C59.1233 120 60.2112 119.656 61.137 119.004C62.5709 117.995 70.2284 112.797 80.1875 109.581C90.4597 106.263 99.2326 106.271 106.261 109.605C107.395 110.143 108.714 110.185 109.878 109.719C111.042 109.253 111.968 108.315 112.417 107.144L117.086 94.992C117.532 93.8302 117.477 92.5219 116.935 91.4025C116.392 90.2817 115.399 89.426 114.208 89.0548C109.929 87.7202 95.8292 81.9724 94.0519 64.0385C93.9563 63.0724 93.0955 62.3663 92.1294 62.4626C91.1633 62.5584 90.4576 63.4191 90.5532 64.3852C92.5437 84.4685 108.361 90.9138 113.162 92.4108C113.526 92.5242 113.7 92.7874 113.771 92.9342C113.841 93.0799 113.94 93.3776 113.804 93.731L109.136 105.883C108.999 106.239 108.724 106.394 108.572 106.454C108.42 106.515 108.113 106.593 107.768 106.429C99.9029 102.698 90.2607 102.633 79.1068 106.235C71.0183 108.848 63.4754 113.059 59.1137 116.129C58.7836 116.361 58.3953 116.484 57.9908 116.484C57.5694 116.484 57.1559 116.348 56.8271 116.1C55.048 114.76 48.5541 110.13 39.691 106.834C38.7816 106.496 37.7689 106.959 37.4307 107.869C37.0922 108.779 37.5554 109.791 38.4655 110.13C45.1538 112.617 51.2431 116.295 54.7119 118.908Z" fill="black"/>
<path d="M92.4033 57.6743C92.3316 57.6743 92.2594 57.6698 92.1863 57.6609C91.2228 57.5423 90.5377 56.6651 90.6563 55.7016C93.0408 36.3265 108.485 30.0619 113.161 28.6034C113.526 28.4897 113.699 28.2267 113.77 28.08C113.841 27.934 113.939 27.6363 113.804 27.2831L109.144 15.1542C109.007 14.7975 108.731 14.6435 108.578 14.5837C108.422 14.5221 108.107 14.4457 107.753 14.6189C99.8061 18.513 91.7265 18.3738 83.7394 14.2057C77.4125 10.9041 72.9528 5.8868 71.3288 3.88289C71.1399 3.64945 70.8568 3.51562 70.5523 3.51562H64.0765C63.1055 3.51562 62.3187 2.72859 62.3187 1.75781C62.3187 0.787031 63.1055 0 64.0765 0H70.5523C71.9223 0 73.2008 0.608672 74.0605 1.66992C77.5362 5.95875 90.1255 19.3411 106.207 11.4621C107.349 10.9022 108.682 10.8473 109.863 11.3116C111.039 11.7734 111.973 12.7146 112.426 13.8937L117.086 26.0227C117.532 27.1845 117.477 28.4927 116.935 29.6123C116.392 30.7331 115.398 31.5888 114.208 31.9598C110.04 33.2599 96.2731 38.8451 94.1457 56.1312C94.0362 57.0216 93.2783 57.6743 92.4033 57.6743Z" fill="black"/>
<path d="M70.67 61.0746H47.33C46.359 61.0746 45.5722 60.2875 45.5722 59.3168C45.5722 58.346 46.359 57.559 47.33 57.559H70.67C71.641 57.559 72.4278 58.346 72.4278 59.3168C72.4278 60.2875 71.641 61.0746 70.67 61.0746Z" fill="black"/>
<path d="M66.8839 72.4113H51.1163C50.1453 72.4113 49.3585 71.6243 49.3585 70.6535C49.3585 69.6827 50.1453 68.8957 51.1163 68.8957H66.8839C67.8549 68.8957 68.6417 69.6827 68.6417 70.6535C68.6417 71.6243 67.8547 72.4113 66.8839 72.4113Z" fill="black"/>
<path d="M71.5714 78.244H46.4286C45.4576 78.244 44.6708 77.4569 44.6708 76.4861C44.6708 75.5154 45.4576 74.7283 46.4286 74.7283H71.5712C72.5422 74.7283 73.329 75.5154 73.329 76.4861C73.329 77.4569 72.5422 78.244 71.5714 78.244Z" fill="black"/>
<path d="M48.8715 53.9662C47.9004 53.9662 47.1136 53.1792 47.1136 52.2084V45.8789C46.6205 45.9133 46.1185 45.7444 45.7423 45.3687C45.0558 44.6822 45.0558 43.5691 45.7423 42.8829L47.6283 40.9969C48.1313 40.4941 48.8872 40.3437 49.5441 40.6158C50.2011 40.8879 50.6293 41.5289 50.6293 42.2397V52.2084C50.6293 53.1792 49.8425 53.9662 48.8715 53.9662Z" fill="black"/>
<path d="M57.1032 53.9663C54.4676 53.9663 52.3233 51.822 52.3233 49.1864V44.7572C52.3233 42.1217 54.4674 39.9774 57.1032 39.9774C59.739 39.9774 61.8833 42.1217 61.8833 44.7572V49.1864C61.8833 51.822 59.7387 53.9663 57.1032 53.9663ZM57.1032 43.493C56.4062 43.493 55.839 44.0602 55.839 44.7572V49.1864C55.839 49.8834 56.4062 50.4506 57.1032 50.4506C57.8004 50.4506 58.3676 49.8834 58.3676 49.1864V44.7572C58.3676 44.0602 57.8004 43.493 57.1032 43.493Z" fill="black"/>
<path d="M67.9925 53.9663C65.3569 53.9663 63.2124 51.822 63.2124 49.1864V44.7572C63.2124 42.1217 65.3567 39.9774 67.9925 39.9774C70.6283 39.9774 72.7723 42.1217 72.7723 44.7572V49.1864C72.7723 51.822 70.628 53.9663 67.9925 53.9663ZM67.9925 43.493C67.2952 43.493 66.728 44.0602 66.728 44.7572V49.1864C66.728 49.8834 67.2952 50.4506 67.9925 50.4506C68.6895 50.4506 69.2567 49.8834 69.2567 49.1864V44.7572C69.2567 44.0602 68.6895 43.493 67.9925 43.493Z" fill="black"/>
</svg>
