<svg width="16" height="16" viewBox="0 0 16 16" fill="none" xmlns="http://www.w3.org/2000/svg">
<rect width="16" height="16" fill="#292929"/>
<path fill-rule="evenodd" clip-rule="evenodd" d="M3.385 3.11246C3.03333 3.30949 2.87703 3.90059 3.11148 4.18957C3.18963 4.29465 3.50223 4.39973 3.78878 4.43914C4.08835 4.47855 4.38793 4.57049 4.46608 4.64931C4.57028 4.75439 4.64843 7.42088 4.6875 12.2416C4.6875 12.6619 5.06523 12.8195 5.63833 12.6619C6.01605 12.5568 6.18537 12.5831 6.43285 12.7407C6.65427 12.8984 7.00595 12.9378 7.7093 12.9246C8.24332 12.8984 8.73827 12.9246 8.81642 12.9772C8.9076 13.0297 9.19415 12.9903 9.45465 12.8721C9.71515 12.767 10.0277 12.6751 10.158 12.6751C10.7181 12.6751 11.8903 10.731 12.0075 9.6145C12.0727 9.11535 12.0206 8.85264 11.7861 8.43231C11.6298 8.13019 11.4344 7.65732 11.3433 7.38148C10.9655 6.23869 8.68617 5.43743 7.032 5.89717C6.64125 6.00226 6.28957 6.0548 6.2505 6.01539C6.21143 5.98912 6.18537 5.37176 6.17235 4.64931C6.17235 3.92686 6.10722 3.28322 6.0421 3.21755C5.82067 2.99424 3.7497 2.91543 3.385 3.11246ZM8.6992 7.3158C9.36347 7.47342 9.92354 7.92003 10.2231 8.49799C10.3794 8.81324 10.3664 8.86578 10.2101 8.86578C9.98867 8.86578 9.98867 8.89205 10.184 9.31238C10.4055 9.8378 10.1319 10.6259 9.65002 10.8361C9.44162 10.9149 9.16809 11.0988 9.03785 11.2433C8.8034 11.506 7.8135 11.6111 7.8135 11.3615C7.8135 11.2827 7.63115 11.2302 7.42275 11.2302C6.4068 11.2302 6.08118 10.4026 6.44587 8.8001C6.69335 7.7624 6.79755 7.57851 7.35762 7.34207C7.85257 7.11877 7.94375 7.11877 8.6992 7.3158Z" fill="white"/>
</svg>
