<svg width="30" height="30" viewBox="0 0 30 30" fill="none" xmlns="http://www.w3.org/2000/svg">
<path d="M21.7208 0H8.27869C3.71382 0 0 3.714 0 8.27887V21.721C0 26.286 3.71382 29.9998 8.27869 29.9998H21.7208C26.286 29.9998 29.9998 26.2858 29.9998 21.721V8.27887C30 3.714 26.286 0 21.7208 0ZM27.3383 21.721C27.3383 24.8183 24.8183 27.3381 21.721 27.3381H8.27869C5.1815 27.3383 2.66173 24.8183 2.66173 21.721V8.27887C2.66173 5.18168 5.1815 2.66173 8.27869 2.66173H21.7208C24.8181 2.66173 27.3381 5.18168 27.3381 8.27887V21.721H27.3383Z" fill="white"/>
<path d="M14.9999 7.27008C10.7374 7.27008 7.26971 10.7378 7.26971 15.0003C7.26971 19.2626 10.7374 22.7301 14.9999 22.7301C19.2624 22.7301 22.7301 19.2626 22.7301 15.0003C22.7301 10.7378 19.2624 7.27008 14.9999 7.27008ZM14.9999 20.0682C12.2053 20.0682 9.93144 17.7947 9.93144 15.0001C9.93144 12.2053 12.2051 9.93163 14.9999 9.93163C17.7947 9.93163 20.0684 12.2053 20.0684 15.0001C20.0684 17.7947 17.7945 20.0682 14.9999 20.0682Z" fill="white"/>
<path d="M23.0543 5.01312C22.5415 5.01312 22.0377 5.22074 21.6755 5.58451C21.3116 5.9465 21.1024 6.45046 21.1024 6.96506C21.1024 7.47806 21.3118 7.98184 21.6755 8.34561C22.0375 8.7076 22.5415 8.91699 23.0543 8.91699C23.5689 8.91699 24.0711 8.7076 24.4349 8.34561C24.7986 7.98184 25.0062 7.47788 25.0062 6.96506C25.0062 6.45046 24.7986 5.9465 24.4349 5.58451C24.0729 5.22074 23.5689 5.01312 23.0543 5.01312Z" fill="white"/>
</svg>
