<svg width="210" height="45" viewBox="0 0 210 45" fill="none" xmlns="http://www.w3.org/2000/svg">
<path fill-rule="evenodd" clip-rule="evenodd" d="M0.864527 0.479421C-0.0116831 0.921241 -0.0481915 1.10533 0.024826 3.68261C0.0613347 5.15535 0.280387 6.55444 0.499439 6.77535C0.681983 6.95944 0.864527 7.65899 0.864527 8.2849C0.864527 10.8622 3.60268 12.1876 4.44238 10.0154C5.09954 8.39536 5.64717 2.20988 5.20907 1.39988C4.5154 0.111238 2.4344 -0.330582 0.864527 0.479421Z" fill="white"/>
<path fill-rule="evenodd" clip-rule="evenodd" d="M7.72814 0.589095C6.48684 1.25183 6.19477 2.31955 6.66938 4.4182C6.88844 5.33866 7.07098 6.81139 7.07098 7.73185C7.07098 9.97776 7.83766 11.0455 9.44405 11.0455C11.379 11.0455 11.7441 10.3828 11.8171 6.73775C11.8536 4.97047 11.8901 3.0191 11.8901 2.43001C11.9266 1.17819 10.7219 0 9.48056 0C9.07896 0.0368183 8.27577 0.25773 7.72814 0.589095Z" fill="white"/>
<path fill-rule="evenodd" clip-rule="evenodd" d="M116.196 0.368178C113.859 0.773179 112.216 1.62 110.646 3.24001C109.478 4.45501 109.332 4.82319 109.222 6.81138L109.113 9.02048L107.47 9.13094C102.322 9.42549 103.089 13.2546 108.273 13.2546H109.296L109.259 18.5932C109.186 24.7419 109.223 24.6683 106.01 24.6683C104.513 24.6683 103.965 24.8524 103.272 25.5887C101.921 26.951 102.067 28.1292 103.71 28.9024C104.914 29.4915 105.389 29.5283 107.58 29.1601C110.61 28.6078 113.458 28.6078 115.137 29.0865C116.524 29.4915 119.847 28.7551 120.504 27.9083C121.307 26.9142 121.343 25.8833 120.686 24.9996C120.102 24.3001 119.554 24.116 117.108 23.9687L114.224 23.7478L114.261 21.9069C114.297 20.876 114.334 18.446 114.37 16.4578L114.407 12.8864H115.794C117.4 12.8864 118.788 12.0396 118.788 11.0455C118.788 10.0882 116.743 8.46821 115.465 8.46821C114.553 8.46821 114.407 8.32093 114.407 7.43729C114.407 6.00138 115.502 5.11774 117.437 4.89683L119.043 4.71274L119.262 6.29593C119.701 9.60958 123.059 11.0087 125.724 9.02048C127.44 7.76866 127.55 7.43729 127.002 5.41229C126.09 1.80409 121.161 -0.515462 116.196 0.368178Z" fill="white"/>
<path fill-rule="evenodd" clip-rule="evenodd" d="M199.217 0.368212C197.72 0.994123 197.574 1.84095 198.377 5.92778C198.778 8.02642 199.399 10.0146 199.728 10.3828C200.494 11.2296 201.918 11.2296 202.356 10.3828C202.831 9.49915 203.598 2.68776 203.342 1.62003C202.977 0.257754 201.005 -0.331337 199.217 0.368212Z" fill="white"/>
<path fill-rule="evenodd" clip-rule="evenodd" d="M206.226 0.368184C204.547 1.03091 204.437 1.54637 204.985 5.92775C205.241 8.32094 205.679 10.2355 205.971 10.53C206.628 11.1928 208.745 11.1928 209.293 10.53C209.549 10.2355 209.731 9.02049 209.731 7.8423C209.731 6.66412 209.804 4.78638 209.914 3.6082C210.096 1.84092 210.023 1.43592 209.366 0.773188C208.563 -0.0368153 207.504 -0.184091 206.226 0.368184Z" fill="white"/>
<path fill-rule="evenodd" clip-rule="evenodd" d="M53.8022 1.17814C52.8164 1.73042 52.3783 3.38724 53.0355 4.19725C53.2545 4.49179 54.1308 4.78634 54.934 4.8968C55.7737 5.00725 56.6134 5.26498 56.8324 5.48589C57.1245 5.78043 57.3435 13.2546 57.4531 26.7669C57.4531 27.9451 58.5118 28.3869 60.1182 27.9451C61.1769 27.6505 61.6516 27.7242 62.3452 28.166C62.9659 28.6078 63.9516 28.7183 65.9231 28.6814C67.4199 28.6078 68.8073 28.6814 69.0263 28.8287C69.2819 28.976 70.0851 28.8655 70.8153 28.5342C71.5454 28.2396 72.4216 27.9819 72.7867 27.9819C74.3566 27.9819 77.6424 22.5328 77.971 19.4032C78.1535 18.0041 78.0075 17.2678 77.3503 16.0896C76.9122 15.2427 76.3646 13.9173 76.109 13.1441C75.0503 9.9409 68.6612 7.69499 64.0246 8.98363C62.9294 9.27817 61.9436 9.42545 61.8341 9.315C61.7246 9.24136 61.6516 7.51089 61.6151 5.48589C61.6151 3.46088 61.4325 1.65678 61.25 1.47269C60.6293 0.846781 54.8244 0.62587 53.8022 1.17814ZM68.6978 12.96C70.5597 13.4018 72.1296 14.6537 72.9693 16.2737C73.4074 17.1573 73.3709 17.3046 72.9328 17.3046C72.3121 17.3046 72.3121 17.3782 72.8597 18.5564C73.4804 20.0291 72.7137 22.2382 71.3629 22.8273C70.7788 23.0482 70.0121 23.5637 69.647 23.9687C68.9898 24.7051 66.2152 24.9996 66.2152 24.3001C66.2152 24.0791 65.704 23.9319 65.1199 23.9319C62.2722 23.9319 61.3595 21.6123 62.3817 17.1205C63.0754 14.2118 63.3675 13.6964 64.9373 13.0336C66.3247 12.4077 66.5802 12.4077 68.6978 12.96Z" fill="white"/>
<path fill-rule="evenodd" clip-rule="evenodd" d="M89.1426 8.10001C83.3012 9.13093 80.5631 11.8555 79.9424 17.3046C79.7599 18.851 79.8694 19.8451 80.4536 21.5019C81.4393 24.4473 82.6076 25.8464 85.3092 27.5033C87.5363 28.8656 87.6458 28.8655 91.2236 28.8655C94.5824 28.8655 95.0571 28.7919 97.2841 27.6874C100.387 26.1778 101.337 25.1469 101.191 23.5269C101.081 22.3119 101.044 22.2751 99.2556 22.1646C97.6127 22.0542 97.2111 22.2014 95.4952 23.5269C93.6332 24.926 93.4507 24.9628 91.4792 24.7787C90.3474 24.6683 88.8141 24.2633 88.0474 23.8951C86.66 23.1955 85.1997 21.5755 85.1997 20.7655C85.1997 20.066 88.6315 19.7714 94.2904 19.9555C98.854 20.1396 99.2921 20.1028 100.241 19.4032C101.154 18.7037 101.264 18.446 101.227 16.4946C101.191 15.2796 100.971 14.2119 100.752 14.0646C100.497 13.9173 100.095 13.2914 99.8397 12.6287C99.3286 11.3768 97.7222 10.125 94.9475 8.91001C92.7205 7.91592 91.2967 7.73183 89.1426 8.10001ZM94.2539 13.3282C95.2761 13.7332 96.1523 14.2855 96.1523 14.5432C96.1523 14.8378 96.2618 15.3164 96.3714 15.6478C96.5904 16.2 96.1158 16.2369 90.9316 16.1264C87.8283 16.0528 85.1267 15.9055 84.9806 15.7582C84.6886 15.4269 85.8568 13.9909 86.4045 13.9909C86.6235 13.9909 87.0616 13.7332 87.4267 13.4018C88.2299 12.6655 90.2014 12.15 91.4062 12.3709C91.9173 12.4814 93.1951 12.8864 94.2539 13.3282Z" fill="white"/>
<path fill-rule="evenodd" clip-rule="evenodd" d="M183.335 8.10001C177.494 9.13093 174.756 11.8555 174.135 17.3046C173.953 18.851 174.062 19.8451 174.646 21.5019C175.632 24.4473 176.8 25.8464 179.502 27.5033C181.729 28.8656 181.838 28.8655 185.416 28.8655C188.775 28.8655 189.25 28.7919 191.477 27.6874C194.58 26.1778 195.529 25.1469 195.383 23.5269C195.274 22.3119 195.237 22.2751 193.448 22.1646C191.805 22.0542 191.404 22.2014 189.688 23.5269C187.826 24.926 187.643 24.9628 185.672 24.7787C184.54 24.6683 183.007 24.2633 182.24 23.8951C180.853 23.1955 179.392 21.5755 179.392 20.7655C179.392 20.066 182.824 19.7714 188.483 19.9555C193.047 20.1396 193.485 20.1028 194.434 19.4032C195.347 18.7037 195.456 18.446 195.42 16.4946C195.383 15.2796 195.164 14.2119 194.945 14.0646C194.689 13.9173 194.288 13.2914 194.032 12.6287C193.521 11.3768 191.915 10.125 189.14 8.91001C186.913 7.91592 185.489 7.73183 183.335 8.10001ZM188.446 13.3282C189.469 13.7332 190.345 14.2855 190.345 14.5432C190.345 14.8378 190.454 15.3164 190.564 15.6478C190.783 16.2 190.308 16.2369 185.124 16.1264C182.021 16.0528 179.319 15.9055 179.173 15.7582C178.881 15.4269 180.049 13.9909 180.597 13.9909C180.816 13.9909 181.254 13.7332 181.619 13.4018C182.423 12.6655 184.394 12.15 185.599 12.3709C186.11 12.4814 187.388 12.8864 188.446 13.3282Z" fill="white"/>
<path fill-rule="evenodd" clip-rule="evenodd" d="M165.702 8.46822C165.3 8.65231 164.606 8.79958 164.132 8.79958C163.657 8.8364 162.379 9.2414 161.284 9.75686L159.239 10.7141L158.509 9.75686C157.816 8.87322 157.633 8.8364 153.873 8.8364C150.514 8.8364 149.857 8.94686 149.346 9.49913C147.776 11.2296 149.2 12.8864 152.266 12.8864C154.53 12.8864 154.493 12.8496 154.603 17.4887C154.712 23.7478 154.676 24.116 153.654 24.5946C153.143 24.8524 152.12 25.0365 151.427 25.0365C150.185 25.0365 148.36 26.3251 148.36 27.2087C148.36 28.2397 150.076 28.6447 154.274 28.6815C156.611 28.6815 158.947 28.7919 159.459 28.9392C160.079 29.0865 160.736 28.9392 161.32 28.571C161.868 28.2028 162.562 28.0556 163.109 28.2028C164.132 28.4606 165.154 27.5401 165.154 26.3251C165.154 25.1837 163.694 24.3001 161.722 24.3001C160.809 24.3001 159.97 24.116 159.824 23.8951C159.678 23.6742 159.532 22.3487 159.459 20.9496C159.349 18.8142 159.495 18.1883 160.262 16.7523C160.846 15.7214 161.54 15.0219 162.087 14.8746C162.562 14.7642 162.963 14.5064 162.963 14.3223C162.963 13.8805 164.898 12.9601 165.446 13.1441C165.665 13.2546 165.884 13.6964 165.884 14.1382C165.884 14.6169 166.213 15.4269 166.614 15.9423C167.271 16.7523 167.709 16.8996 169.644 17.0101C171.908 17.1205 171.908 17.1205 172.529 15.8319C172.894 15.1323 173.186 14.2855 173.186 13.9541C173.186 12.6287 171.689 9.97777 170.521 9.24141C169.097 8.35777 166.724 7.98958 165.702 8.46822Z" fill="white"/>
<path fill-rule="evenodd" clip-rule="evenodd" d="M131.566 8.94683C128.207 9.86729 125.688 12.0028 124.52 15.0219C123.753 16.9364 123.753 17.3046 124.447 17.3046C125.067 17.3046 125.213 17.8937 124.629 18.1146C124.118 18.2619 123.753 20.7287 124.045 21.9069C124.374 23.2692 126.674 25.6624 128.609 26.7301C129.521 27.2455 130.69 27.8715 131.201 28.166C134.048 29.7492 139.342 29.8228 141.46 28.3501C144.417 26.2883 146.169 24.4105 146.169 23.3428C146.169 22.901 146.352 22.3855 146.534 22.2751C146.753 22.1278 146.9 21.7596 146.863 21.4282C146.79 21.0601 146.9 20.4342 147.046 19.9923C147.192 19.5137 147.192 18.9614 147.046 18.7037C146.863 18.446 146.79 17.7096 146.863 17.0837C147.009 15.39 145.366 12.4078 143.796 11.4137C143.103 10.9718 142.518 10.4932 142.518 10.3459C142.518 10.1987 141.898 9.75684 141.168 9.38865C139.452 8.57865 133.975 8.32092 131.566 8.94683ZM139.561 14.1014C140.657 14.6537 141.46 16.826 141.496 19.4032C141.533 21.2442 141.46 21.3914 139.744 22.9746C138.137 24.4842 137.772 24.6314 136.129 24.6683C134.925 24.6683 133.793 24.4105 132.844 23.8583C128.353 21.4282 127.732 16.4578 131.639 13.9541C132.698 13.2914 133.209 13.2178 135.728 13.4387C137.334 13.5491 139.05 13.8437 139.561 14.1014Z" fill="white"/>
<path fill-rule="evenodd" clip-rule="evenodd" d="M12.9854 18.446C11.7441 19.256 10.7219 21.1705 10.7219 22.6433C10.7219 24.2264 12.1092 26.8405 13.3505 27.6505C14.2997 28.2396 14.9569 28.3501 16.4172 28.2028C17.7315 28.0924 18.5347 28.2028 19.0824 28.571C19.776 29.0496 19.849 29.0496 19.849 28.571C19.849 28.2396 20.3602 27.6505 20.9443 27.1719C21.565 26.7301 22.0031 26.0674 21.9666 25.736C21.8935 25.4046 22.0761 24.8524 22.3682 24.521C23.0253 23.7478 22.9523 21.9069 22.2586 20.1764C21.6015 18.5932 20.5792 18.1514 16.8188 17.8569C14.5188 17.6728 14.0442 17.7464 12.9854 18.446Z" fill="white"/>
<path fill-rule="evenodd" clip-rule="evenodd" d="M28.2461 18.3355C26.9318 19.0719 25.727 20.9496 25.6905 22.3487C25.6905 23.1219 26.0191 24.1896 26.8953 26.0673C27.5524 27.5033 29.4509 28.3869 31.6049 28.3501C32.6637 28.3133 33.905 28.3869 34.3796 28.5342C34.9272 28.7183 35.1828 28.6446 35.1828 28.3133C35.1828 28.0187 35.5844 27.4665 36.0955 27.0983C36.6066 26.6933 37.0082 26.141 36.9352 25.8096C36.8987 25.4783 37.1542 24.7787 37.4828 24.2633C37.9574 23.5269 38.067 22.901 37.8844 21.7596C37.7384 20.9496 37.5193 20.2501 37.3368 20.2501C37.1542 20.2501 37.0082 19.9923 37.0082 19.661C37.0082 18.851 34.8907 18.0778 32.0065 17.82C29.962 17.6728 29.3049 17.7464 28.2461 18.3355Z" fill="white"/>
<path fill-rule="evenodd" clip-rule="evenodd" d="M43.1416 18.4828C41.1701 19.6978 40.3669 22.6801 41.4622 24.7787C41.6813 25.2205 41.9733 25.8464 42.1194 26.141C42.2654 26.4355 42.9226 27.0983 43.6162 27.5401C44.6385 28.2396 45.1861 28.3869 46.683 28.2396C47.9242 28.1292 48.7639 28.2396 49.3116 28.6078C50.0783 29.1233 50.1513 29.1233 50.1513 28.571C50.1513 28.2765 50.6624 27.6137 51.2831 27.1719C51.9767 26.6564 52.3053 26.1042 52.2323 25.6992C52.1228 25.3678 52.2688 24.8892 52.5609 24.6314C53.8022 23.6005 52.6704 19.3664 50.8815 18.5196C50.3703 18.2987 48.7274 18.0041 47.2306 17.8569C44.821 17.6728 44.3464 17.7464 43.1416 18.4828Z" fill="white"/>
<path d="M65.93 41.49L65.88 43.63L66.75 43.7C66.75 43.8867 66.6933 44.0867 66.58 44.3H64.26L64.23 43.95C64.5367 43.85 64.8367 43.7733 65.13 43.72C65.09 41 65.0567 38.9767 65.03 37.65C64.73 37.6433 64.4367 37.6033 64.15 37.53L64.19 37.01C64.5767 36.91 65.1167 36.86 65.81 36.86C65.87 36.9667 65.9267 37.1633 65.98 37.45C66.8333 37.0167 67.3733 36.8 67.6 36.8C68.22 36.8 68.68 37.0433 68.98 37.53C69.28 38.01 69.43 38.6367 69.43 39.41C69.43 40.1767 69.26 40.82 68.92 41.34C68.5867 41.86 68.1 42.12 67.46 42.12C67.22 42.12 66.9567 42.06 66.67 41.94C66.39 41.82 66.1433 41.67 65.93 41.49ZM67.42 37.55C67.0067 37.55 66.5267 37.6967 65.98 37.99C65.9667 39.23 65.9533 40.16 65.94 40.78C66.1067 40.9467 66.3267 41.1 66.6 41.24C66.88 41.3733 67.1233 41.44 67.33 41.44C68.1167 41.44 68.51 40.7933 68.51 39.5C68.51 39.0067 68.4533 38.62 68.34 38.34C68.2267 38.0533 68.0967 37.85 67.95 37.73C67.8033 37.61 67.6267 37.55 67.42 37.55ZM73.221 37.64C73.1877 37.6067 73.1143 37.59 73.001 37.59C72.8877 37.59 72.7177 37.63 72.491 37.71C72.271 37.79 72.071 37.8833 71.891 37.99C71.851 39.47 71.8243 40.58 71.811 41.32L72.651 41.4C72.651 41.5867 72.5943 41.7867 72.481 42H70.181L70.151 41.65C70.4577 41.5433 70.7577 41.4633 71.051 41.41C71.011 39.7167 70.9777 38.4633 70.951 37.65C70.5843 37.63 70.291 37.59 70.071 37.53L70.111 37.01C70.4643 36.91 70.9877 36.86 71.681 36.86C71.7877 37.0267 71.8543 37.24 71.881 37.5C72.6477 37.0333 73.1043 36.8 73.251 36.8C73.3977 36.8 73.5677 36.83 73.761 36.89C73.9543 36.9433 74.0977 37.0033 74.191 37.07C74.191 37.7367 74.1277 38.28 74.001 38.7C73.9077 38.7267 73.7977 38.74 73.671 38.74C73.551 38.74 73.4677 38.7367 73.421 38.73L73.221 37.64ZM77.1832 41.44C77.4765 41.44 77.9365 41.3 78.5632 41.02C78.6899 41.1933 78.7565 41.3467 78.7632 41.48C78.4232 41.68 78.0899 41.8367 77.7632 41.95C77.4365 42.0633 77.2032 42.12 77.0632 42.12C76.2899 42.12 75.6999 41.89 75.2932 41.43C74.8865 40.9633 74.6832 40.3133 74.6832 39.48C74.6832 38.6467 74.8799 37.9933 75.2732 37.52C75.6732 37.04 76.2699 36.8 77.0632 36.8C77.6765 36.8 78.1432 37.02 78.4632 37.46C78.7899 37.9 78.9532 38.49 78.9532 39.23C78.8999 39.3233 78.8565 39.3867 78.8232 39.42L75.6032 39.37C75.6099 40.0433 75.7265 40.5567 75.9532 40.91C76.1865 41.2633 76.5965 41.44 77.1832 41.44ZM78.0432 38.8C78.0432 38.36 77.9632 38.02 77.8032 37.78C77.6432 37.5333 77.3765 37.41 77.0032 37.41C76.6299 37.41 76.2965 37.48 76.0032 37.62C75.8032 38.02 75.6765 38.43 75.6232 38.85C76.1499 38.8433 76.9565 38.8267 78.0432 38.8ZM84.6104 37.92C84.6371 38.1333 84.6504 38.38 84.6504 38.66C84.6504 38.94 84.6237 39.8267 84.5704 41.32L85.4104 41.4C85.4104 41.5867 85.3537 41.7867 85.2404 42H82.9404L82.9104 41.65C83.2171 41.5433 83.5171 41.4633 83.8104 41.41C83.7704 39.6367 83.7337 38.65 83.7004 38.45C83.6737 38.25 83.6271 38.0833 83.5604 37.95C83.4937 37.81 83.3904 37.7133 83.2504 37.66C83.1104 37.6067 82.8971 37.58 82.6104 37.58C82.3304 37.58 81.9604 37.6867 81.5004 37.9C81.4604 39.42 81.4337 40.56 81.4204 41.32L82.2604 41.4C82.2604 41.5867 82.2037 41.7867 82.0904 42H79.7904L79.7604 41.65C80.0671 41.5433 80.3671 41.4633 80.6604 41.41C80.6537 40.93 80.6371 40.2533 80.6104 39.38C80.5837 38.5 80.5671 37.9233 80.5604 37.65C80.1937 37.63 79.9004 37.59 79.6804 37.53L79.7204 37.01C80.0804 36.91 80.6037 36.86 81.2904 36.86C81.3837 37.0267 81.4437 37.2 81.4704 37.38C81.7637 37.2267 82.0537 37.0933 82.3404 36.98C82.6271 36.86 82.8071 36.8 82.8804 36.8C83.6204 36.8 84.1371 37.0267 84.4304 37.48C84.7371 37.3133 85.0537 37.16 85.3804 37.02C85.7137 36.8733 85.9137 36.8 85.9804 36.8C86.5871 36.8 87.0404 36.95 87.3404 37.25C87.6471 37.5433 87.8004 38.0267 87.8004 38.7C87.8004 38.9 87.7737 39.7733 87.7204 41.32L88.5604 41.4C88.5604 41.5867 88.5037 41.7867 88.3904 42H86.0904L86.0604 41.65C86.3671 41.5433 86.6671 41.4633 86.9604 41.41C86.9337 40.3567 86.9104 39.56 86.8904 39.02C86.8704 38.48 86.7937 38.1067 86.6604 37.9C86.5271 37.6867 86.2604 37.58 85.8604 37.58C85.4604 37.58 85.0437 37.6933 84.6104 37.92ZM90.8182 35.97C90.6449 36.01 90.4749 36.03 90.3082 36.03C90.1482 36.03 89.9882 36.02 89.8282 36C89.7882 35.8133 89.7682 35.6267 89.7682 35.44C89.7682 35.2467 89.7749 35.1033 89.7882 35.01C89.9349 34.9767 90.0882 34.96 90.2482 34.96C90.4149 34.96 90.5915 34.9667 90.7782 34.98C90.8182 35.1533 90.8382 35.3233 90.8382 35.49C90.8382 35.65 90.8315 35.81 90.8182 35.97ZM88.9982 37.02C89.5649 36.92 90.0049 36.87 90.3182 36.87C90.6315 36.87 90.8315 36.8767 90.9182 36.89C90.9182 37.05 90.8982 37.2267 90.8582 37.42C90.8182 37.6133 90.7949 37.7067 90.7882 37.7L90.6982 41.32L91.5382 41.4C91.5382 41.5867 91.4815 41.7867 91.3682 42H89.0682L89.0382 41.65C89.3449 41.5433 89.6449 41.4633 89.9382 41.41C89.8982 39.7433 89.8649 38.4933 89.8382 37.66C89.4515 37.66 89.1582 37.62 88.9582 37.54L88.9982 37.02ZM94.6744 41.34C94.8677 41.34 95.0844 41.3 95.3244 41.22C95.5644 41.1333 95.761 41.03 95.9144 40.91C95.8877 39.49 95.8644 38.4133 95.8444 37.68C95.431 37.68 95.1244 37.64 94.9244 37.56L94.9644 37.04C95.531 36.94 95.9744 36.89 96.2944 36.89C96.621 36.89 96.8277 36.8967 96.9144 36.91C96.9144 37.03 96.8944 37.19 96.8544 37.39C96.821 37.59 96.7977 37.7 96.7844 37.72L96.6644 41.29C97.0177 41.31 97.3044 41.35 97.5244 41.41L97.5044 41.92C97.211 42.0133 96.9277 42.06 96.6544 42.06C96.381 42.06 96.2144 42.0567 96.1544 42.05C96.0277 41.7967 95.9544 41.5633 95.9344 41.35C95.6077 41.5967 95.3044 41.7867 95.0244 41.92C94.751 42.0533 94.571 42.12 94.4844 42.12C93.8977 42.12 93.471 41.9633 93.2044 41.65C92.9444 41.33 92.8144 40.8633 92.8144 40.25C92.8144 40.2433 92.8444 39.39 92.9044 37.69C92.5177 37.69 92.161 37.6467 91.8344 37.56L91.8744 37.04C92.441 36.94 92.881 36.89 93.1944 36.89C93.5077 36.89 93.7077 36.8967 93.7944 36.91C93.7944 37.07 93.7744 37.2467 93.7344 37.44C93.6944 37.6333 93.671 37.7267 93.6644 37.72L93.6744 39.88C93.6744 40.3867 93.7377 40.7567 93.8644 40.99C93.991 41.2233 94.261 41.34 94.6744 41.34ZM102.892 37.92C102.918 38.1333 102.932 38.38 102.932 38.66C102.932 38.94 102.905 39.8267 102.852 41.32L103.692 41.4C103.692 41.5867 103.635 41.7867 103.522 42H101.222L101.192 41.65C101.498 41.5433 101.798 41.4633 102.092 41.41C102.052 39.6367 102.015 38.65 101.982 38.45C101.955 38.25 101.908 38.0833 101.842 37.95C101.775 37.81 101.672 37.7133 101.532 37.66C101.392 37.6067 101.178 37.58 100.892 37.58C100.612 37.58 100.242 37.6867 99.7816 37.9C99.7416 39.42 99.715 40.56 99.7016 41.32L100.542 41.4C100.542 41.5867 100.485 41.7867 100.372 42H98.0716L98.0416 41.65C98.3483 41.5433 98.6483 41.4633 98.9416 41.41C98.935 40.93 98.9183 40.2533 98.8916 39.38C98.865 38.5 98.8483 37.9233 98.8416 37.65C98.475 37.63 98.1816 37.59 97.9616 37.53L98.0016 37.01C98.3616 36.91 98.885 36.86 99.5716 36.86C99.665 37.0267 99.725 37.2 99.7516 37.38C100.045 37.2267 100.335 37.0933 100.622 36.98C100.908 36.86 101.088 36.8 101.162 36.8C101.902 36.8 102.418 37.0267 102.712 37.48C103.018 37.3133 103.335 37.16 103.662 37.02C103.995 36.8733 104.195 36.8 104.262 36.8C104.868 36.8 105.322 36.95 105.622 37.25C105.928 37.5433 106.082 38.0267 106.082 38.7C106.082 38.9 106.055 39.7733 106.002 41.32L106.842 41.4C106.842 41.5867 106.785 41.7867 106.672 42H104.372L104.342 41.65C104.648 41.5433 104.948 41.4633 105.242 41.41C105.215 40.3567 105.192 39.56 105.172 39.02C105.152 38.48 105.075 38.1067 104.942 37.9C104.808 37.6867 104.542 37.58 104.142 37.58C103.742 37.58 103.325 37.6933 102.892 37.92ZM112.537 41.39L113.427 41.37C114.347 41.37 114.807 41.75 114.807 42.51C114.807 42.8633 114.654 43.19 114.347 43.49C114.047 43.7967 113.687 44.0267 113.267 44.18C112.847 44.3333 112.454 44.41 112.087 44.41C111.727 44.41 111.39 44.3567 111.077 44.25C110.764 44.15 110.497 43.9833 110.277 43.75C110.057 43.5167 109.947 43.2467 109.947 42.94C109.947 42.8667 110.064 42.6733 110.297 42.36C110.537 42.0533 110.694 41.8733 110.767 41.82C110.707 41.78 110.59 41.6667 110.417 41.48C110.244 41.2867 110.147 41.1533 110.127 41.08C110.294 40.7733 110.557 40.4733 110.917 40.18C110.384 39.86 110.117 39.3333 110.117 38.6C110.117 38.0133 110.304 37.5667 110.677 37.26C111.05 36.9533 111.517 36.8 112.077 36.8C112.637 36.8 113.07 36.89 113.377 37.07C113.91 36.9633 114.434 36.91 114.947 36.91C115.074 36.91 115.137 36.9867 115.137 37.14C115.137 37.4067 115.087 37.59 114.987 37.69L113.837 37.5C114.077 37.8067 114.197 38.1733 114.197 38.6C114.197 39.2667 114 39.7467 113.607 40.04C113.214 40.3267 112.73 40.47 112.157 40.47C111.977 40.47 111.764 40.4467 111.517 40.4C111.417 40.6067 111.29 40.83 111.137 41.07C111.257 41.2833 111.724 41.39 112.537 41.39ZM113.807 43.23C113.874 43.0433 113.907 42.85 113.907 42.65C113.907 42.4567 113.83 42.3 113.677 42.18C113.524 42.06 113.327 42 113.087 42C112.134 42 111.55 41.99 111.337 41.97C111.157 42.2567 111.03 42.4967 110.957 42.69C110.89 42.89 110.857 43.0033 110.857 43.03C110.857 43.29 110.98 43.4833 111.227 43.61C111.474 43.7367 111.757 43.8 112.077 43.8C112.404 43.8 112.73 43.7467 113.057 43.64C113.39 43.5333 113.64 43.3967 113.807 43.23ZM113.297 38.64C113.297 37.8133 112.917 37.4 112.157 37.4C111.397 37.4 111.017 37.8 111.017 38.6C111.017 39.0067 111.117 39.32 111.317 39.54C111.517 39.76 111.807 39.87 112.187 39.87C112.927 39.87 113.297 39.46 113.297 38.64ZM117.988 41.52C118.548 41.52 118.925 41.3467 119.118 41C119.318 40.6467 119.418 40.1467 119.418 39.5C119.418 38.4733 119.192 37.83 118.738 37.57C118.552 37.4633 118.288 37.41 117.948 37.41C117.615 37.41 117.298 37.48 116.998 37.62C116.732 38.1333 116.598 38.73 116.598 39.41C116.598 40.0633 116.685 40.5667 116.858 40.92C117.058 41.32 117.435 41.52 117.988 41.52ZM115.678 39.5C115.678 38.6533 115.872 37.9933 116.258 37.52C116.645 37.04 117.242 36.8 118.048 36.8C118.855 36.8 119.438 37.02 119.798 37.46C120.158 37.8933 120.338 38.5367 120.338 39.39C120.338 40.2433 120.145 40.9133 119.758 41.4C119.378 41.8867 118.798 42.13 118.018 42.13C117.238 42.13 116.652 41.9033 116.258 41.45C115.872 40.9967 115.678 40.3467 115.678 39.5ZM123.369 41.52C123.929 41.52 124.306 41.3467 124.499 41C124.699 40.6467 124.799 40.1467 124.799 39.5C124.799 38.4733 124.573 37.83 124.119 37.57C123.933 37.4633 123.669 37.41 123.329 37.41C122.996 37.41 122.679 37.48 122.379 37.62C122.113 38.1333 121.979 38.73 121.979 39.41C121.979 40.0633 122.066 40.5667 122.239 40.92C122.439 41.32 122.816 41.52 123.369 41.52ZM121.059 39.5C121.059 38.6533 121.253 37.9933 121.639 37.52C122.026 37.04 122.623 36.8 123.429 36.8C124.236 36.8 124.819 37.02 125.179 37.46C125.539 37.8933 125.719 38.5367 125.719 39.39C125.719 40.2433 125.526 40.9133 125.139 41.4C124.759 41.8867 124.179 42.13 123.399 42.13C122.619 42.13 122.033 41.9033 121.639 41.45C121.253 40.9967 121.059 40.3467 121.059 39.5ZM129.88 37.37L129.85 35.37C129.483 35.35 129.19 35.31 128.97 35.25L129.01 34.73C129.35 34.63 129.843 34.58 130.49 34.58C130.697 34.58 130.843 34.5867 130.93 34.6C130.93 34.72 130.91 34.88 130.87 35.08C130.837 35.2733 130.813 35.38 130.8 35.4L130.71 41.31C130.983 41.3233 131.273 41.37 131.58 41.45L131.56 41.8C131.1 42.0133 130.693 42.12 130.34 42.12C130.267 42.12 130.21 42.1167 130.17 42.11C130.117 42.01 130.05 41.78 129.97 41.42C129.203 41.8533 128.667 42.0867 128.36 42.12C127.72 42.12 127.24 41.8767 126.92 41.39C126.6 40.9033 126.44 40.28 126.44 39.52C126.44 38.7533 126.6 38.11 126.92 37.59C127.247 37.0633 127.727 36.8 128.36 36.8C128.853 36.8 129.36 36.99 129.88 37.37ZM128.53 37.48C127.75 37.48 127.36 38.12 127.36 39.4C127.36 39.9 127.44 40.3333 127.6 40.7C127.68 40.9 127.797 41.06 127.95 41.18C128.11 41.3 128.293 41.36 128.5 41.36C128.707 41.36 128.947 41.3133 129.22 41.22C129.5 41.1267 129.74 41.02 129.94 40.9L129.88 38.05C129.7 37.8967 129.48 37.7633 129.22 37.65C128.96 37.5367 128.73 37.48 128.53 37.48ZM132.924 41.36C133.158 41.46 133.441 41.51 133.774 41.51C134.114 41.51 134.381 41.4467 134.574 41.32C134.768 41.1933 134.864 41.02 134.864 40.8C134.864 40.58 134.774 40.3967 134.594 40.25C134.414 40.1033 134.194 39.9733 133.934 39.86C133.674 39.7467 133.414 39.6267 133.154 39.5C132.894 39.3733 132.674 39.2067 132.494 39C132.314 38.7933 132.224 38.5533 132.224 38.28C132.224 37.82 132.378 37.46 132.684 37.2C132.991 36.9333 133.414 36.8 133.954 36.8C134.501 36.8 135.014 36.9233 135.494 37.17C135.501 37.2367 135.504 37.4167 135.504 37.71C135.504 37.9967 135.474 38.2433 135.414 38.45C135.254 38.5033 135.064 38.53 134.844 38.53L134.514 37.51C134.368 37.4367 134.168 37.4 133.914 37.4C133.668 37.4 133.471 37.4667 133.324 37.6C133.178 37.7267 133.104 37.89 133.104 38.09C133.104 38.2833 133.194 38.4533 133.374 38.6C133.561 38.7467 133.784 38.88 134.044 39C134.304 39.1133 134.564 39.2367 134.824 39.37C135.084 39.4967 135.304 39.6667 135.484 39.88C135.671 40.0867 135.764 40.3267 135.764 40.6C135.764 41.08 135.578 41.4567 135.204 41.73C134.838 41.9967 134.384 42.13 133.844 42.13C133.551 42.13 133.238 42.0833 132.904 41.99C132.571 41.89 132.291 41.7633 132.064 41.61C132.064 41.1633 132.104 40.7667 132.184 40.42C132.338 40.3933 132.544 40.38 132.804 40.38L132.924 41.36Z" fill="white"/>
</svg>
