<svg width="30" height="30" viewBox="0 0 30 30" fill="none" xmlns="http://www.w3.org/2000/svg">
<path d="M21.8837 17.8837L21.8725 17.9775C19.1237 16.6075 18.8362 16.425 18.4812 16.9575C18.235 17.3262 17.5175 18.1625 17.3012 18.41C17.0825 18.6537 16.865 18.6725 16.4937 18.5037C16.1187 18.3162 14.915 17.9225 13.49 16.6475C12.38 15.6537 11.635 14.435 11.415 14.06C11.0487 13.4275 11.815 13.3375 12.5125 12.0175C12.6375 11.755 12.5737 11.5487 12.4812 11.3625C12.3875 11.175 11.6412 9.33747 11.3287 8.60497C11.0287 7.87497 10.72 7.96747 10.4887 7.96747C9.76874 7.90497 9.24249 7.91497 8.77874 8.39747C6.76124 10.615 7.26999 12.9025 8.99624 15.335C12.3887 19.775 14.1962 20.5925 17.5012 21.7275C18.3937 22.0112 19.2075 21.9712 19.8512 21.8787C20.5687 21.765 22.06 20.9775 22.3712 20.0962C22.69 19.215 22.69 18.4837 22.5962 18.315C22.5037 18.1462 22.2587 18.0525 21.8837 17.8837Z" fill="white"/>
<path d="M25.65 4.31124C16.0387 -4.98001 0.1325 1.75874 0.12625 14.8662C0.12625 17.4862 0.8125 20.0412 2.12 22.2975L0 30L7.91875 27.935C17.8 33.2725 29.995 26.185 30 14.8737C30 10.9037 28.45 7.16749 25.6312 4.35999L25.65 4.31124ZM27.5025 14.8325C27.495 24.3737 17.0212 30.3325 8.7375 25.4625L8.2875 25.195L3.6 26.4137L4.85625 21.8575L4.5575 21.3887C-0.5975 13.1825 5.325 2.45749 15.09 2.45749C18.4075 2.45749 21.5212 3.75124 23.8662 6.09499C26.21 8.41874 27.5025 11.5325 27.5025 14.8325Z" fill="white"/>
</svg>
